<svg width="512" height="512" xmlns="http://www.w3.org/2000/svg">

 <g>
  <title>Layer 1</title>
  <path id="svg_1" d="m0,0l512,0l0,512l-512,0l0,-512z"/>
  <path id="svg_2" d="m375.483,251.243l-109.98,51.138l0.213,183.381l211.294,-219.416l-86.993,-21.81l-14.534,6.707zm-253.88,-6.909l-84.71,21.763l209.581,219.903l0,-183.62l-109.946,-51.137l-14.925,-6.909zm-94.413,4.531l199.84,-213.422l-102.097,179.576l-5.708,10.06l-92.035,23.786zm257.828,-213.494l199.793,213.268l-91.572,-22.941l-6.1,-10.703l-102.121,-179.624zm-29.031,-9.371l-118.531,205.026l118.532,55.05l118.604,-55.05l-118.605,-205.026z" fill="#fff"/>
  <text transform="matrix(1 0 0 1 0 0)" style="cursor: text;" xml:space="preserve" text-anchor="start" font-family="'Brygada 1918'" font-size="130" stroke-width="0" id="svg_3" y="216" x="219.27344" fill="#000000">9</text>
 </g>
</svg>