<svg width="512" height="512" xmlns="http://www.w3.org/2000/svg">

 <g>
  <title>Layer 1</title>
  <path id="svg_1" d="m0,0l512,0l0,512l-512,0l0,-512z"/>
  <path id="svg_2" d="m450.169,181.354l-70.484,-97.064l-114.056,-36.965l0,92.652l96.384,70.031l88.156,-28.654zm-203.619,-41.377l0,-92.652l-114.056,36.965l-70.484,97.064l88.156,28.618l96.384,-69.995zm-47.96,193.614l114.998,0l35.51,-109.37l-93.009,-67.598l-93.009,67.599l35.51,109.369zm-2.122,19.079l-54.434,75.04l114.055,36.965l114.056,-36.965l-54.434,-75.04l-119.243,0zm171.375,-124.561l-36.81,113.28l54.483,74.993l70.484,-97.016l0,-119.863l-88.157,28.606zm-223.687,0l-88.156,-28.618l0,119.934l70.484,97.016l54.482,-74.992l-36.81,-113.34z" fill="#fff"/>
  <text transform="matrix(1 0 0 1 0 0)" style="cursor: text;" xml:space="preserve" text-anchor="start" font-family="'Brygada 1918'" font-size="142" id="svg_3" y="303" x="215.88281" fill="#000000">9</text>
 </g>
</svg>